<?xml version="1.0" encoding="utf-8"?>
<!-- Generator: Adobe Illustrator 14.0.0, SVG Export Plug-In . SVG Version: 6.00 Build 43363)  -->
<!DOCTYPE svg PUBLIC "-//W3C//DTD SVG 1.1//EN" "http://www.w3.org/Graphics/SVG/1.1/DTD/svg11.dtd">
<svg version="1.1" id="Layer_1" xmlns="http://www.w3.org/2000/svg" xmlns:xlink="http://www.w3.org/1999/xlink" x="0px" y="0px"
	 width="208.667px" height="78.333px" viewBox="0 0 208.667 78.333" enable-background="new 0 0 208.667 78.333"
	 xml:space="preserve">
<g>
	<g>
		<path fill="#723401" d="M59.726,23.412c0.51-4.699-2.031-4.823-2.031-4.823c-6.471,1.523-11.297,16.5-11.297,16.5h-3.926v-1.803
			c0.009-7.264,9.385-16.474,9.385-16.474c1.397-2.413,0.764-2.033,0.764-2.033c-5.207-8.378-20.437-6.473-20.437-6.473
			s-15.23-1.905-20.438,6.473c0,0-0.632-0.38,0.765,2.033c0,0,9.376,9.21,9.385,16.474v1.803h-3.927c0,0-4.826-14.977-11.297-16.5
			c0,0-2.54,0.124-2.03,4.823c0,0-1.142,14.467,15.103,19.802v15.23h2.157V43.973h10.283h10.281v14.472h2.158v-15.23
			C60.868,37.879,59.726,23.412,59.726,23.412z"/>
		<g>
			<g>
				<path fill="#723401" d="M99.972,57.967h7.824v1.644h-5.916v3.002h5.916v1.624h-5.892v5.761h-1.932V57.967z"/>
				<path fill="#723401" d="M112.953,62.206h1.926v4.391c0,1.356,0.7,2.028,2.097,2.028c0.617,0,1.109-0.177,1.474-0.542
					c0.357-0.363,0.542-0.858,0.542-1.486v-4.391h1.902v4.655c0,0.977-0.37,1.779-1.117,2.407c-0.747,0.629-1.701,0.945-2.855,0.945
					c-1.182,0-2.14-0.316-2.872-0.945c-0.729-0.628-1.096-1.448-1.096-2.464V62.206z"/>
				<path fill="#723401" d="M128.772,62.206v1.606c0.43-0.644,0.85-1.105,1.263-1.394c0.408-0.284,0.941-0.429,1.601-0.429
					c0.183,0,0.446,0.036,0.796,0.113l-0.59,1.644c-0.366-0.063-0.61-0.095-0.726-0.095c-0.65,0-1.196,0.192-1.639,0.58
					c-0.441,0.386-0.657,0.874-0.657,1.448v4.316h-1.926v-7.791H128.772z"/>
				<path fill="#723401" d="M137.681,69.997v-7.791h1.885v1.295c0.555-0.521,1.057-0.902,1.507-1.149
					c0.455-0.24,0.955-0.361,1.505-0.361c0.83,0,1.536,0.233,2.125,0.698c0.586,0.467,0.88,1.028,0.88,1.681v5.628h-1.928V64.85
					c0-0.418-0.162-0.768-0.481-1.047c-0.322-0.274-0.73-0.417-1.223-0.417c-0.646,0-1.199,0.233-1.661,0.696
					c-0.468,0.462-0.7,1.024-0.7,1.673v4.242H137.681z"/>
				<path fill="#723401" d="M151.024,59.646c0-0.338,0.144-0.632,0.444-0.883c0.295-0.245,0.646-0.373,1.053-0.373
					c0.396,0,0.739,0.128,1.031,0.373c0.295,0.251,0.44,0.545,0.44,0.883c0,0.351-0.146,0.643-0.44,0.89
					c-0.292,0.246-0.636,0.366-1.031,0.366c-0.406,0-0.758-0.12-1.053-0.366C151.168,60.289,151.024,59.997,151.024,59.646z
					 M151.566,62.206h1.908v7.791h-1.908V62.206z"/>
				<path fill="#723401" d="M160.377,59.94h1.925v2.266h1.908v1.502h-1.908v6.289h-1.925v-6.289h-1.521v-1.52h1.521V59.94z"/>
				<path fill="#723401" d="M168.979,62.206h1.927v4.391c0,1.356,0.699,2.028,2.095,2.028c0.619,0,1.111-0.177,1.475-0.542
					c0.358-0.363,0.542-0.858,0.542-1.486v-4.391h1.903v4.655c0,0.977-0.375,1.779-1.121,2.407
					c-0.743,0.629-1.697,0.945-2.855,0.945c-1.178,0-2.14-0.316-2.87-0.945c-0.732-0.628-1.095-1.448-1.095-2.464V62.206z"/>
				<path fill="#723401" d="M184.793,62.206v1.606c0.43-0.644,0.851-1.105,1.263-1.394c0.407-0.284,0.942-0.429,1.6-0.429
					c0.184,0,0.447,0.036,0.797,0.113l-0.59,1.644c-0.368-0.063-0.606-0.095-0.726-0.095c-0.652,0-1.198,0.192-1.637,0.58
					c-0.442,0.386-0.66,0.874-0.66,1.448v4.316h-1.925v-7.791H184.793z"/>
				<path fill="#723401" d="M202.739,66.419h-7.801c0.169,0.798,0.553,1.384,1.157,1.751c0.604,0.366,1.256,0.552,1.969,0.552
					c1.091,0,2.007-0.387,2.746-1.162l1.408,0.907c-1.059,1.167-2.474,1.747-4.242,1.747c-1.36,0-2.498-0.396-3.415-1.19
					c-0.916-0.79-1.372-1.781-1.372-2.954c0-1.102,0.461-2.057,1.392-2.867c0.925-0.806,2.061-1.212,3.396-1.212
					c1.312,0,2.44,0.408,3.373,1.232C202.29,64.043,202.751,65.109,202.739,66.419z M195.139,65.106h5.583
					c-0.622-1.068-1.537-1.605-2.745-1.605C196.652,63.501,195.704,64.038,195.139,65.106z"/>
			</g>
		</g>
	</g>
	<g>
		<g>
			<path fill="#D16B00" d="M82.854,33.87l2.607,3.285l1.5,1.813c2.909,3.589,4.362,7.387,4.362,11.389
				c0,3.891-1.284,7.3-3.851,10.227c-3.514,4.022-8.111,6.035-13.796,6.035c-4.398,0-8.006-1.358-10.82-4.067
				c-2.813-2.707-4.22-6.18-4.22-10.411c0-5.172,2.191-9.492,6.571-12.946c2.324-1.832,4.467-2.747,6.43-2.747
				c1.021,0,1.852,0.292,2.493,0.878c0.644,0.585,0.964,1.341,0.964,2.267c0,1.247-0.737,2.323-2.21,3.228l-2.267,1.39
				c-1.303,0.813-2.389,1.946-3.257,3.401c-0.87,1.451-1.304,2.888-1.304,4.304c0,2.248,0.761,4.104,2.282,5.567
				c1.52,1.464,3.45,2.194,5.792,2.194c2.588,0,4.835-0.968,6.742-2.902c1.907-1.938,2.861-4.216,2.861-6.84
				c0-1.662-0.386-3.174-1.162-4.532c-0.774-1.361-2.445-3.47-5.014-6.321c-1.793-1.982-3.078-3.719-3.851-5.21h-7.65
				c-2.604,0-3.908-0.898-3.908-2.692c0-1.303,0.458-2.31,1.375-3.017c0.916-0.708,2.205-1.062,3.866-1.062h4.844
				c0.377-3.739,2.087-6.833,5.127-9.277c3.041-2.445,6.686-3.668,10.935-3.668c3.191,0,5.793,0.877,7.804,2.634
				c2.01,1.757,3.016,4.032,3.016,6.827c0,3.72-1.595,6.571-4.788,8.554c-1.811,1.133-4.692,1.701-8.638,1.701H82.854z
				 M79.456,27.099h6.797c3.833,0,5.75-1.115,5.75-3.344c0-0.868-0.392-1.567-1.175-2.096c-0.783-0.529-1.828-0.792-3.129-0.792
				c-2.04,0-3.896,0.632-5.567,1.896C80.46,24.03,79.569,25.475,79.456,27.099z"/>
			<path fill="#D16B00" d="M116.081,47.042h3.117c2.379,0,3.569,0.831,3.569,2.494c0,1.152-0.423,2.054-1.273,2.704
				c-0.851,0.653-2.02,0.979-3.513,0.979h-3.628c-1.623,0-2.728-0.634-3.314-1.899c-1.416,1.266-2.788,1.899-4.109,1.899h-3.228
				c-2.077,0-3.752-0.741-5.027-2.226c-1.275-1.481-1.913-3.422-1.913-5.821c0-3.626,1.252-6.871,3.753-9.731
				c2.501-2.862,5.33-4.292,8.483-4.292c2.42,0,4.186,0.84,5.3,2.521c0.945-1.416,2.18-2.125,3.711-2.125
				c0.83,0,1.523,0.265,2.08,0.794c0.56,0.528,0.84,1.18,0.84,1.954c0,0.529-0.151,1.161-0.456,1.898l-0.313,0.765L116.081,47.042z
				 M105.8,47.184h0.706c1.551,0,2.578-0.632,3.092-1.899l1.98-4.901c0.265-0.641,0.397-1.18,0.397-1.614
				c0-0.509-0.248-0.954-0.75-1.331c-0.499-0.378-1.102-0.566-1.8-0.566c-1.382,0-2.72,0.801-4.023,2.406
				c-1.303,1.606-1.955,3.266-1.955,4.988C103.447,46.213,104.23,47.184,105.8,47.184z"/>
			<path fill="#D16B00" d="M157.921,47.042h3.371c2.379,0,3.569,0.841,3.569,2.521c0,1.152-0.42,2.05-1.262,2.692
				c-0.838,0.64-2.006,0.964-3.496,0.964h-5.754c-1.243,0-2.253-0.332-3.029-0.992c-0.773-0.661-1.162-1.53-1.162-2.608
				c0-0.733,0.256-1.735,0.769-3l2.66-6.489c0.151-0.378,0.228-0.727,0.228-1.049c0-1.226-0.625-1.841-1.868-1.841
				c-0.965,0-1.918,0.435-2.862,1.304c-0.945,0.868-1.701,2.021-2.266,3.457l-3.174,7.818c-1.036,2.534-2.548,3.798-4.533,3.798
				c-0.772,0-1.434-0.254-1.98-0.768c-0.549-0.51-0.822-1.113-0.822-1.811c0-0.546,0.141-1.189,0.424-1.928l0.312-0.766l3.202-7.903
				c0.283-0.698,0.424-1.247,0.424-1.643c0-0.415-0.19-0.779-0.565-1.09c-0.38-0.313-0.821-0.468-1.333-0.468
				c-2.039,0-3.652,1.474-4.843,4.419l-3.313,8.133c-1.041,2.547-2.542,3.824-4.507,3.824c-0.773,0-1.44-0.251-1.997-0.753
				c-0.557-0.5-0.834-1.107-0.834-1.825c0-0.568,0.141-1.207,0.425-1.928l0.312-0.766l5.639-13.88
				c0.79-1.945,1.982-2.918,3.567-2.918c1.644,0,2.661,0.774,3.06,2.324c1.285-1.097,2.328-1.824,3.132-2.182
				c0.802-0.359,1.789-0.539,2.959-0.539c2.529,0,4.429,1.106,5.693,3.314c2.116-2.208,4.494-3.314,7.136-3.314
				c1.814,0,3.33,0.524,4.548,1.573c1.218,1.048,1.828,2.336,1.828,3.865c0,0.964-0.207,1.956-0.625,2.975L157.921,47.042z"/>
			<path fill="#D16B00" d="M173.813,47.042h3.2c2.381,0,3.57,0.841,3.57,2.521c0,1.152-0.42,2.05-1.261,2.692
				c-0.84,0.64-2.015,0.964-3.526,0.964h-4.505c-1.662,0-2.97-0.342-3.923-1.019c-0.953-0.682-1.431-1.607-1.431-2.776
				c0-0.625,0.197-1.419,0.595-2.382l4.676-11.502l0.311-0.794c0.868-2.133,2.267-3.201,4.191-3.201
				c0.794,0,1.479,0.265,2.054,0.794c0.577,0.528,0.865,1.161,0.865,1.897c0,0.604-0.255,1.53-0.766,2.776L173.813,47.042z
				 M177.552,22.509c1.095,0,2.025,0.382,2.79,1.147c0.767,0.766,1.149,1.696,1.149,2.791c0,1.096-0.383,2.026-1.149,2.791
				c-0.765,0.764-1.695,1.146-2.79,1.146c-1.096,0-2.025-0.382-2.79-1.146c-0.763-0.765-1.146-1.695-1.146-2.791
				c0-1.095,0.383-2.025,1.146-2.791C175.526,22.892,176.456,22.509,177.552,22.509z"/>
			<path fill="#D16B00" d="M188.743,37.749l-0.966,2.38c-0.869,2.114-2,3.172-3.398,3.172c-0.851,0-1.559-0.255-2.125-0.766
				c-0.565-0.509-0.85-1.142-0.85-1.896c0-0.434,0.206-1.17,0.622-2.21l3.202-7.903c0.773-1.908,1.869-2.861,3.285-2.861
				c1.399,0,2.259,0.662,2.578,1.983l0.228,0.878c0.113,0.454,0.281,0.736,0.51,0.851c0.226,0.112,0.781,0.169,1.671,0.169h6.628
				c2.472,0,3.711,0.869,3.711,2.606c0,2.399-1.567,3.597-4.702,3.597l-0.312,0.284c-3.003,2.872-4.504,5.089-4.504,6.659
				c0,1.568,0.868,2.351,2.606,2.351h3.57c2.396,0,3.596,0.831,3.596,2.494c0,1.17-0.42,2.076-1.26,2.719
				c-0.841,0.64-2.017,0.964-3.528,0.964h-5.551c-1.891,0-3.435-0.652-4.631-1.955c-1.2-1.304-1.801-2.992-1.801-5.072
				c0-1.321,0.323-2.606,0.967-3.854c0.64-1.246,1.774-2.776,3.397-4.589H188.743z"/>
		</g>
	</g>
</g>
</svg>
